<?xml version="1.0" encoding="utf-8"?>
<!-- Generator: Adobe Illustrator 21.1.0, SVG Export Plug-In . SVG Version: 6.00 Build 0)  -->
<svg version="1.1" id="Layer_1" xmlns="http://www.w3.org/2000/svg" xmlns:xlink="http://www.w3.org/1999/xlink" x="0px" y="0px"
	 width="297.4px" height="292.4px" viewBox="0 0 297.4 292.4" style="enable-background:new 0 0 297.4 292.4;" xml:space="preserve"
	>
<g>
	<path d="M192.2,140c-16.9,0-27.8,17-27.8,40.4v0.3c0,23.4,11.2,40.9,28.2,40.9s27.8-17.2,27.8-40.5v-0.2
		C220.4,157.5,209.1,140,192.2,140z"/>
	<path d="M276.7,22.8h-13.1c-2.3,0-4.5,0.9-6.1,2.3v3.6v0.7v11.2v12.9c0,19.8-16.1,35.9-36,35.9c-18.2,0-33.5-13.5-35.6-31.5
		l-0.1-1.1v-1.1v-4.1V40.8V29.6v-0.7v-6h-72.7v5.9v0.8v11.1v12.9c0,19.8-16.1,35.9-36,35.9c-18,0-33.3-13.4-35.5-31.3l-0.2-1.3v-1.3
		v-4.1V40.7V29.4v-0.6v-3.5c-1.6-1.5-3.9-2.5-6.3-2.5H20.6C9.2,22.8,0,32,0,43.4v228.4c0,11.4,9.2,20.6,20.6,20.6h256.1
		c11.4,0,20.7-9.2,20.7-20.6V43.4C297.4,32,288.1,22.8,276.7,22.8z M108.7,230.9c0,7.8-6.3,14-14,14c-7.8,0-14-6.3-14-14v-78.5
		c0-0.1,0-0.2,0-0.3c0-0.1,0-0.2,0-0.3c-0.2-2.8-2.6-5-5.4-5c-0.3,0-0.6,0.1-0.9,0.1c-0.2,0.1-0.5,0.1-0.7,0.2l-2.8,0.7
		c-0.1,0.1-0.1,0.1-0.2,0.1l-0.9,0.2h-0.1c-0.7,0.1-1.5,0.2-2.3,0.2c-5.6,0-10.5-4-11.8-9.2c-0.2-0.9-0.3-2-0.3-3
		c0-5.4,3.5-9.9,8.3-11.5l0.9-0.3l23-6.9l0.5-0.1c1-0.3,2.2-0.5,3.4-0.5h8.8c4.8,0,8.6,3.8,8.5,8.6V230.9z M249.3,180.7
		c0,37.1-22.8,66.2-57,66.2s-56.8-28.8-56.8-65.9v-0.3c0-37.1,23.2-66.2,57.2-66.2c33.9,0,56.7,28.8,56.7,65.9v0.3H249.3z"/>
	<path d="M237.5,53.5V40.6V29.4v-0.7v-6v-4.8v-4.1C236.5,6,229.8,0,221.8,0c-8.8,0-16,7.1-16,15.9v6.9v6v0.7v11.2v10.8v4.1
		c0.9,7.8,7.6,13.8,15.7,13.8C230.3,69.4,237.5,62.3,237.5,53.5z"/>
	<path d="M77.4,0c-8.8,0-16,7.1-16,15.9v6.9v6v0.6v11.3v10.8v4.1c1,7.8,7.7,13.8,15.7,13.8c8.8,0,16-7.1,16-15.9V40.6V29.5v-0.8v-6
		v-4.8v-4.1C92.1,6,85.4,0,77.4,0z"/>
</g>
</svg>
