<?xml version="1.0" encoding="utf-8"?>
<!-- Generator: Adobe Illustrator 21.1.0, SVG Export Plug-In . SVG Version: 6.00 Build 0)  -->
<svg version="1.1" id="Layer_1" xmlns="http://www.w3.org/2000/svg" xmlns:xlink="http://www.w3.org/1999/xlink" x="0px" y="0px"
	 width="544.2px" height="544.2px" viewBox="0 0 544.2 544.2" style="enable-background:new 0 0 544.2 544.2;" xml:space="preserve"
	>
<style type="text/css">
	.st0{fill:#1A767E;}
	.st1{fill:#F8F9FB;}
</style>
<path class="st0" d="M272.1,0C2.1,0,0,121.8,0,272.1s2.1,272.1,272.1,272.1s272.1-121.8,272.1-272.1S542.1,0,272.1,0z"/>
<g>
	<path class="st1" d="M315.6,265.9c-16.9,0-27.8,17-27.8,40.4v0.3c0,23.4,11.2,40.9,28.2,40.9s27.8-17.2,27.8-40.5v-0.2
		C343.8,283.4,332.5,265.9,315.6,265.9z"/>
	<path class="st1" d="M400.1,148.7H387c-2.3,0-4.5,0.9-6.1,2.3v3.6v0.7v11.2v12.9c0,19.8-16.1,35.9-36,35.9
		c-18.2,0-33.5-13.5-35.6-31.5l-0.1-1.1v-1.1v-4.1v-10.8v-11.2v-0.7v-6h-72.7v5.9v0.8v11.1v12.9c0,19.8-16.1,35.9-36,35.9
		c-18,0-33.3-13.4-35.5-31.3l-0.2-1.3v-1.3v-4.1v-10.8v-11.3v-0.6v-3.5c-1.6-1.5-3.9-2.5-6.3-2.5H144c-11.4,0-20.6,9.2-20.6,20.6
		v228.4c0,11.4,9.2,20.6,20.6,20.6h256.1c11.4,0,20.7-9.2,20.7-20.6V169.3C420.8,157.9,411.5,148.7,400.1,148.7z M232.1,356.8
		c0,7.8-6.3,14-14,14c-7.8,0-14-6.3-14-14v-78.5c0-0.1,0-0.2,0-0.3c0-0.1,0-0.2,0-0.3c-0.2-2.8-2.6-5-5.4-5c-0.3,0-0.6,0.1-0.9,0.1
		c-0.2,0.1-0.5,0.1-0.7,0.2l-2.8,0.7c-0.1,0.1-0.1,0.1-0.2,0.1l-0.9,0.2h-0.1c-0.7,0.1-1.5,0.2-2.3,0.2c-5.6,0-10.5-4-11.8-9.2
		c-0.2-0.9-0.3-2-0.3-3c0-5.4,3.5-9.9,8.3-11.5l0.9-0.3l23-6.9l0.5-0.1c1-0.3,2.2-0.5,3.4-0.5h8.8c4.8,0,8.6,3.8,8.5,8.6V356.8z
		 M372.7,306.6c0,37.1-22.8,66.2-57,66.2c-34.2,0-56.8-28.8-56.8-65.9v-0.3c0-37.1,23.2-66.2,57.2-66.2c33.9,0,56.7,28.8,56.7,65.9
		V306.6z"/>
	<path class="st1" d="M360.9,179.4v-12.9v-11.2v-0.7v-6v-4.8v-4.1c-1-7.8-7.7-13.8-15.7-13.8c-8.8,0-16,7.1-16,15.9v6.9v6v0.7v11.2
		v10.8v4.1c0.9,7.8,7.6,13.8,15.7,13.8C353.7,195.3,360.9,188.2,360.9,179.4z"/>
	<path class="st1" d="M200.8,125.9c-8.8,0-16,7.1-16,15.9v6.9v6v0.6v11.3v10.8v4.1c1,7.8,7.7,13.8,15.7,13.8c8.8,0,16-7.1,16-15.9
		v-12.9v-11.1v-0.8v-6v-4.8v-4.1C215.5,131.9,208.8,125.9,200.8,125.9z"/>
</g>
</svg>
